<mxfile host="drawio-plugin" modified="2022-06-29T15:53:39.812Z" agent="5.0 (Macintosh; Intel Mac OS X 10_15_7) AppleWebKit/537.36 (KHTML, like Gecko) Chrome/97.0.4692.45 Safari/537.36" etag="Ge7dQ61n4_Jv5_vZK8uo" version="15.5.4" type="embed"><diagram id="K8gbWWgciXM93NndIorP" name="Page-1"><mxGraphModel dx="987" dy="788" grid="1" gridSize="10" guides="1" tooltips="1" connect="1" arrows="1" fold="1" page="1" pageScale="1" pageWidth="1200" pageHeight="1920" background="#FFFFFF" math="0" shadow="0"><root><mxCell id="0"/><mxCell id="1" parent="0"/><mxCell id="92" style="edgeStyle=orthogonalEdgeStyle;rounded=0;orthogonalLoop=1;jettySize=auto;html=1;exitX=0;exitY=0.5;exitDx=0;exitDy=0;entryX=1;entryY=0.25;entryDx=0;entryDy=0;strokeColor=#000000;" parent="1" source="2" target="5" edge="1"><mxGeometry relative="1" as="geometry"/></mxCell><mxCell id="2" value="Twitter" style="rounded=0;whiteSpace=wrap;html=1;fillColor=#e1d5e7;strokeColor=none;fontColor=#000000;" parent="1" vertex="1"><mxGeometry x="875.88" y="100" width="120" height="40" as="geometry"/></mxCell><mxCell id="93" style="edgeStyle=orthogonalEdgeStyle;rounded=0;orthogonalLoop=1;jettySize=auto;html=1;exitX=0;exitY=0.5;exitDx=0;exitDy=0;entryX=1;entryY=0.5;entryDx=0;entryDy=0;strokeColor=#000000;" parent="1" source="3" target="5" edge="1"><mxGeometry relative="1" as="geometry"/></mxCell><mxCell id="3" value="Youtube" style="rounded=0;whiteSpace=wrap;html=1;fillColor=#e1d5e7;strokeColor=none;fontColor=#000000;" parent="1" vertex="1"><mxGeometry x="875.88" y="165" width="120" height="40" as="geometry"/></mxCell><mxCell id="91" style="edgeStyle=orthogonalEdgeStyle;rounded=0;orthogonalLoop=1;jettySize=auto;html=1;exitX=0;exitY=0.5;exitDx=0;exitDy=0;entryX=1;entryY=0.75;entryDx=0;entryDy=0;strokeColor=#000000;" parent="1" source="4" target="5" edge="1"><mxGeometry relative="1" as="geometry"/></mxCell><mxCell id="4" value="Bilibili" style="rounded=0;whiteSpace=wrap;html=1;fillColor=#e1d5e7;strokeColor=none;fontColor=#000000;" parent="1" vertex="1"><mxGeometry x="875.88" y="230" width="120" height="40" as="geometry"/></mxCell><mxCell id="32" style="edgeStyle=none;html=1;entryX=0.5;entryY=0;entryDx=0;entryDy=0;exitX=0.5;exitY=1;exitDx=0;exitDy=0;exitPerimeter=0;strokeColor=#000000;" parent="1" source="96" target="27" edge="1"><mxGeometry relative="1" as="geometry"><mxPoint x="687.5055555555555" y="430" as="sourcePoint"/></mxGeometry></mxCell><mxCell id="25" style="edgeStyle=none;html=1;exitX=0.5;exitY=1;exitDx=0;exitDy=0;entryX=0.5;entryY=0;entryDx=0;entryDy=0;entryPerimeter=0;strokeColor=#000000;" parent="1" source="5" target="96" edge="1"><mxGeometry relative="1" as="geometry"><mxPoint x="687.5099999999998" y="350" as="targetPoint"/></mxGeometry></mxCell><mxCell id="87" value="Tasks" style="edgeStyle=orthogonalEdgeStyle;rounded=0;orthogonalLoop=1;jettySize=auto;html=1;exitX=0.5;exitY=0;exitDx=0;exitDy=0;exitPerimeter=0;entryX=0;entryY=0.5;entryDx=0;entryDy=0;strokeColor=#000000;fontColor=#000000;labelBackgroundColor=#FFFFFF;" parent="1" source="34" target="5" edge="1"><mxGeometry relative="1" as="geometry"/></mxCell><mxCell id="34" value="MongoDB&lt;br&gt;Tasks" style="shape=datastore;whiteSpace=wrap;html=1;boundedLbl=1;backgroundOutline=1;size=15;fillColor=#fad7ac;strokeColor=#b46504;fontColor=#B64504;align=center;" parent="1" vertex="1"><mxGeometry x="195" y="320" width="90" height="80" as="geometry"/></mxCell><mxCell id="40" value="MongoDB&lt;br&gt;VTBs" style="shape=datastore;whiteSpace=wrap;html=1;boundedLbl=1;backgroundOutline=1;size=15;fillColor=#fad7ac;strokeColor=#b46504;fontColor=#B64504;" parent="1" vertex="1"><mxGeometry x="305" y="320" width="90" height="80" as="geometry"/></mxCell><mxCell id="53" style="edgeStyle=none;html=1;exitX=1;exitY=0.5;exitDx=0;exitDy=0;entryX=0;entryY=0.5;entryDx=0;entryDy=0;strokeColor=#000000;" parent="1" source="45" target="27" edge="1"><mxGeometry relative="1" as="geometry"/></mxCell><mxCell id="55" value="Add new resource (Task)" style="edgeStyle=none;html=1;exitX=0.25;exitY=0;exitDx=0;exitDy=0;entryX=0.5;entryY=1;entryDx=0;entryDy=0;entryPerimeter=0;strokeColor=#000000;fontColor=#000000;labelBackgroundColor=#FFFFFF;" parent="1" source="45" target="34" edge="1"><mxGeometry x="0.0301" y="-2" relative="1" as="geometry"><mxPoint as="offset"/></mxGeometry></mxCell><mxCell id="110" style="edgeStyle=orthogonalEdgeStyle;rounded=0;orthogonalLoop=1;jettySize=auto;html=1;exitX=0.5;exitY=1;exitDx=0;exitDy=0;entryX=0.16;entryY=-0.06;entryDx=0;entryDy=0;entryPerimeter=0;labelBackgroundColor=none;fontColor=#000000;strokeColor=#000000;" edge="1" parent="1" source="45" target="48"><mxGeometry relative="1" as="geometry"/></mxCell><mxCell id="45" value="API" style="rounded=0;whiteSpace=wrap;html=1;fillColor=#ffcc99;strokeColor=none;fontColor=#000000;" parent="1" vertex="1"><mxGeometry x="290" y="505" width="120" height="60" as="geometry"/></mxCell><mxCell id="48" value="Users" style="rounded=0;whiteSpace=wrap;html=1;fillColor=#fad9d5;strokeColor=none;fontColor=#000000;" parent="1" vertex="1"><mxGeometry x="255" y="650" width="595" height="50" as="geometry"/></mxCell><mxCell id="58" value="MongoDB&lt;br&gt;Users" style="shape=datastore;whiteSpace=wrap;html=1;boundedLbl=1;backgroundOutline=1;size=15;fillColor=#fad7ac;strokeColor=#b46504;fontColor=#B64504;" parent="1" vertex="1"><mxGeometry x="420" y="320" width="90" height="80" as="geometry"/></mxCell><mxCell id="63" value="" style="endArrow=classic;startArrow=classic;html=1;entryX=0.5;entryY=1;entryDx=0;entryDy=0;entryPerimeter=0;exitX=0.75;exitY=0;exitDx=0;exitDy=0;strokeColor=#000000;fontColor=#000000;labelBackgroundColor=none;" parent="1" source="45" target="58" edge="1"><mxGeometry width="50" height="50" relative="1" as="geometry"><mxPoint x="550" y="460" as="sourcePoint"/><mxPoint x="600" y="410" as="targetPoint"/></mxGeometry></mxCell><mxCell id="64" value="User config" style="edgeLabel;html=1;align=center;verticalAlign=middle;resizable=0;points=[];labelBackgroundColor=#FFFFFF;fontColor=#000000;" parent="63" vertex="1" connectable="0"><mxGeometry x="-0.1135" y="-1" relative="1" as="geometry"><mxPoint x="-4" y="-9" as="offset"/></mxGeometry></mxCell><mxCell id="65" value="" style="endArrow=classic;startArrow=classic;html=1;entryX=0.5;entryY=1;entryDx=0;entryDy=0;entryPerimeter=0;exitX=0.5;exitY=0;exitDx=0;exitDy=0;strokeColor=#000000;" parent="1" source="45" target="40" edge="1"><mxGeometry width="50" height="50" relative="1" as="geometry"><mxPoint x="550" y="460" as="sourcePoint"/><mxPoint x="600" y="410" as="targetPoint"/></mxGeometry></mxCell><mxCell id="66" value="Retrieve and update VTB info" style="edgeLabel;html=1;align=center;verticalAlign=middle;resizable=0;points=[];fontColor=#000000;labelBackgroundColor=#FFFFFF;" parent="65" vertex="1" connectable="0"><mxGeometry x="0.619" y="1" relative="1" as="geometry"><mxPoint as="offset"/></mxGeometry></mxCell><mxCell id="79" value="" style="group" parent="1" vertex="1" connectable="0"><mxGeometry x="785" y="320" width="110" height="140" as="geometry"/></mxCell><mxCell id="67" value="" style="rounded=0;whiteSpace=wrap;html=1;dashed=1;fillColor=none;strokeColor=#000000;" parent="79" vertex="1"><mxGeometry width="110" height="140" as="geometry"/></mxCell><mxCell id="69" value="Translate" style="rounded=0;whiteSpace=wrap;html=1;fillColor=#bac8d3;strokeColor=none;fontColor=#000000;" parent="79" vertex="1"><mxGeometry x="20" y="80" width="70" height="30" as="geometry"/></mxCell><mxCell id="70" value="MIddlewares" style="text;html=1;align=center;verticalAlign=middle;resizable=0;points=[];autosize=1;strokeColor=none;fillColor=none;fontColor=#000000;" parent="79" vertex="1"><mxGeometry x="15" y="10" width="80" height="20" as="geometry"/></mxCell><mxCell id="76" value="..." style="text;html=1;align=center;verticalAlign=middle;resizable=0;points=[];autosize=1;strokeColor=none;fillColor=none;" parent="79" vertex="1"><mxGeometry x="40" y="110" width="30" height="20" as="geometry"/></mxCell><mxCell id="68" value="Delay" style="rounded=0;whiteSpace=wrap;html=1;fillColor=#bac8d3;strokeColor=none;fontColor=#000000;" parent="79" vertex="1"><mxGeometry x="20" y="40" width="70" height="30" as="geometry"/></mxCell><mxCell id="90" value="" style="group;fontColor=#000000;" parent="1" vertex="1" connectable="0"><mxGeometry x="607.51" y="70" width="160" height="230" as="geometry"/></mxCell><mxCell id="5" value="" style="rounded=0;whiteSpace=wrap;html=1;dashed=1;fillColor=none;strokeColor=#000000;" parent="90" vertex="1"><mxGeometry width="160" height="230" as="geometry"/></mxCell><mxCell id="6" value="Twitter Worker" style="rounded=0;whiteSpace=wrap;html=1;fillColor=#cce5ff;strokeColor=none;fontColor=#000000;" parent="90" vertex="1"><mxGeometry x="20" y="20" width="120" height="40" as="geometry"/></mxCell><mxCell id="9" value="Youtube Worker" style="rounded=0;whiteSpace=wrap;html=1;fillColor=#cce5ff;strokeColor=none;fontColor=#000000;" parent="90" vertex="1"><mxGeometry x="20" y="70" width="120" height="40" as="geometry"/></mxCell><mxCell id="10" value="Bilibili Worker" style="rounded=0;whiteSpace=wrap;html=1;fillColor=#cce5ff;strokeColor=none;fontColor=#000000;" parent="90" vertex="1"><mxGeometry x="20" y="120" width="120" height="40" as="geometry"/></mxCell><mxCell id="13" value="Worker Cluster" style="text;html=1;strokeColor=none;fillColor=none;align=center;verticalAlign=middle;whiteSpace=wrap;rounded=0;direction=south;fontColor=#000000;" parent="90" vertex="1"><mxGeometry x="20.16" y="180" width="119.67" height="40" as="geometry"/></mxCell><mxCell id="22" value="......" style="text;html=1;strokeColor=none;fillColor=none;align=center;verticalAlign=middle;whiteSpace=wrap;rounded=0;fontColor=#000000;" parent="90" vertex="1"><mxGeometry x="55.81796116504856" y="160" width="48.349514563106794" height="30" as="geometry"/></mxCell><mxCell id="95" value="" style="group" parent="1" vertex="1" connectable="0"><mxGeometry x="522.51" y="480" width="330" height="110" as="geometry"/></mxCell><mxCell id="27" value="" style="rounded=0;whiteSpace=wrap;html=1;dashed=1;fillColor=none;strokeColor=#000000;" parent="95" vertex="1"><mxGeometry width="330" height="110" as="geometry"/></mxCell><mxCell id="28" value="Telegram Bot" style="rounded=0;whiteSpace=wrap;html=1;fillColor=#d0cee2;strokeColor=none;fontColor=#000000;" parent="95" vertex="1"><mxGeometry x="28.529999999999973" y="50" width="92.34" height="40" as="geometry"/></mxCell><mxCell id="29" value="QQ Bot" style="rounded=0;whiteSpace=wrap;html=1;fillColor=#d0cee2;strokeColor=none;fontColor=#000000;" parent="95" vertex="1"><mxGeometry x="142.21000000000004" y="50" width="92.34" height="40" as="geometry"/></mxCell><mxCell id="30" value="......" style="text;html=1;strokeColor=none;fillColor=none;align=center;verticalAlign=middle;whiteSpace=wrap;rounded=0;fontColor=#000000;" parent="95" vertex="1"><mxGeometry x="260.87796116504853" y="55" width="48.349514563106794" height="30" as="geometry"/></mxCell><mxCell id="31" value="IM Integrations" style="text;html=1;strokeColor=none;fillColor=none;align=center;verticalAlign=middle;whiteSpace=wrap;rounded=0;fontColor=#000000;" parent="95" vertex="1"><mxGeometry x="28.53" y="10" width="82.5" height="30" as="geometry"/></mxCell><mxCell id="96" value="Rabbit&lt;br&gt;MQ" style="shape=cylinder3;whiteSpace=wrap;html=1;boundedLbl=1;backgroundOutline=1;size=15;rounded=0;fontColor=#000000;strokeColor=#000000;fillColor=#99CCFF;" parent="1" vertex="1"><mxGeometry x="647.51" y="340" width="80" height="90" as="geometry"/></mxCell><mxCell id="103" style="edgeStyle=orthogonalEdgeStyle;rounded=0;orthogonalLoop=1;jettySize=auto;html=1;exitX=1;exitY=0.5;exitDx=0;exitDy=0;fontFamily=Helvetica;fontSize=12;fontColor=#000000;strokeColor=#000000;" parent="1" source="101" target="67" edge="1"><mxGeometry relative="1" as="geometry"/></mxCell><mxCell id="101" value="λ" style="ellipse;whiteSpace=wrap;html=1;rounded=0;dashed=1;strokeColor=#36393d;fillColor=#ffcccc;align=center;fontColor=#000000;" parent="1" vertex="1"><mxGeometry x="720" y="380" width="20" height="20" as="geometry"/></mxCell><mxCell id="111" style="edgeStyle=orthogonalEdgeStyle;rounded=0;orthogonalLoop=1;jettySize=auto;html=1;exitX=0.5;exitY=1;exitDx=0;exitDy=0;entryX=0.728;entryY=-0.02;entryDx=0;entryDy=0;entryPerimeter=0;labelBackgroundColor=none;fontColor=#000000;strokeColor=#000000;" edge="1" parent="1" source="27" target="48"><mxGeometry relative="1" as="geometry"/></mxCell></root></mxGraphModel></diagram></mxfile>